<?xml version="1.0" standalone="no"?>
<!DOCTYPE svg PUBLIC "-//W3C//DTD SVG 20010904//EN"
 "http://www.w3.org/TR/2001/REC-SVG-20010904/DTD/svg10.dtd">
<svg version="1.0" xmlns="http://www.w3.org/2000/svg"
 width="512.000000pt" height="512.000000pt" viewBox="0 0 512.000000 512.000000"
 preserveAspectRatio="xMidYMid meet">

<g transform="translate(0.000000,512.000000) scale(0.100000,-0.100000)"
fill="#000000" stroke="none">
<path d="M2147 5104 c-301 -54 -567 -281 -668 -570 -51 -146 -49 -87 -49
-1853 0 -1470 2 -1658 16 -1742 81 -475 466 -852 944 -924 483 -74 967 172
1182 599 45 90 60 128 91 236 21 75 21 77 24 1483 l3 1407 -130 0 -130 0 0
-1355 c0 -1481 2 -1425 -57 -1575 -60 -150 -180 -304 -309 -396 -77 -55 -207
-116 -299 -140 -98 -26 -312 -26 -410 0 -327 86 -583 353 -649 678 -14 69 -16
261 -16 1715 0 1434 2 1646 16 1703 53 229 243 413 480 466 88 19 216 15 297
-10 211 -66 380 -243 432 -452 13 -53 15 -221 13 -1310 l-3 -1249 -27 -56
c-36 -72 -105 -141 -176 -176 -50 -25 -68 -28 -152 -28 -77 0 -104 4 -143 22
-70 33 -150 113 -183 186 -28 61 -29 65 -35 302 -4 132 -7 565 -8 963 l-1 722
-132 0 -131 0 6 -957 c6 -1061 3 -1008 74 -1152 45 -94 159 -212 254 -264 178
-99 409 -101 592 -5 93 48 215 174 260 268 71 146 67 59 67 1448 0 1387 3
1328 -65 1485 -54 126 -94 186 -190 283 -211 212 -493 301 -788 248z"/>
</g>
</svg>
