<?xml version="1.0" standalone="no"?>
<!DOCTYPE svg PUBLIC "-//W3C//DTD SVG 20010904//EN"
 "http://www.w3.org/TR/2001/REC-SVG-20010904/DTD/svg10.dtd">
<svg version="1.0" xmlns="http://www.w3.org/2000/svg"
 width="512.000000pt" height="512.000000pt" viewBox="0 0 512.000000 512.000000"
 preserveAspectRatio="xMidYMid meet">

<g transform="translate(0.000000,512.000000) scale(0.100000,-0.100000)"
fill="#000000" stroke="none">
<path d="M386 4984 c-130 -31 -261 -133 -324 -251 -66 -124 -63 -48 -60 -1580
l3 -1388 23 -59 c59 -156 184 -273 347 -327 31 -10 196 -14 710 -19 l669 -5
338 -585 c186 -323 351 -597 367 -612 55 -49 147 -49 202 0 16 15 180 287 367
612 l338 585 669 5 c514 5 679 9 710 19 164 54 288 170 347 327 l23 59 3 1380
c2 993 0 1397 -8 1440 -36 193 -191 355 -381 400 -94 22 -4251 21 -4343 -1z
m4291 -315 c40 -15 82 -57 104 -104 18 -38 19 -97 19 -1385 0 -1284 -1 -1347
-19 -1385 -22 -50 -69 -91 -119 -105 -24 -6 -285 -10 -732 -10 -691 0 -695 0
-730 -21 -19 -12 -40 -29 -47 -38 -7 -9 -141 -240 -299 -513 -158 -274 -291
-498 -294 -498 -3 0 -134 222 -290 493 -156 270 -292 503 -303 517 -46 62 -15
59 -777 60 -446 0 -708 4 -732 10 -50 14 -97 55 -119 105 -18 38 -19 102 -19
1383 0 1471 -4 1380 58 1446 56 59 -92 55 2179 56 1454 0 2100 -3 2120 -11z"/>
<path d="M1990 4099 c-155 -16 -316 -97 -431 -216 -79 -83 -129 -162 -165
-268 -24 -69 -28 -96 -29 -195 0 -100 4 -125 28 -196 69 -203 242 -430 515
-677 167 -151 560 -477 590 -488 35 -13 103 -11 133 5 28 15 304 239 479 390
328 284 542 550 617 770 24 71 28 96 28 196 -1 99 -5 126 -29 195 -15 44 -47
112 -71 151 -52 83 -168 197 -246 241 -169 96 -380 121 -567 68 -67 -19 -186
-81 -242 -126 l-39 -32 -53 41 c-140 108 -331 160 -518 141z m219 -340 c72
-25 148 -84 196 -154 57 -83 84 -100 155 -100 70 0 98 17 152 96 69 101 160
159 274 177 172 28 349 -67 421 -224 82 -180 9 -347 -286 -647 -144 -147 -536
-487 -561 -487 -28 0 -438 359 -592 518 -206 213 -297 374 -285 503 18 201
220 363 427 341 25 -2 69 -13 99 -23z"/>
</g>
</svg>
