<?xml version="1.0" standalone="no"?>
<!DOCTYPE svg PUBLIC "-//W3C//DTD SVG 20010904//EN"
 "http://www.w3.org/TR/2001/REC-SVG-20010904/DTD/svg10.dtd">
<svg version="1.0" xmlns="http://www.w3.org/2000/svg"
 width="512.000000pt" height="512.000000pt" viewBox="0 0 512.000000 512.000000"
 preserveAspectRatio="xMidYMid meet">

<g transform="translate(0.000000,512.000000) scale(0.100000,-0.100000)"
fill="#000000" stroke="none">
<path d="M1150 4671 c-73 -23 -125 -57 -183 -120 -58 -62 -92 -132 -107 -221
-8 -46 -10 -460 -8 -1385 l3 -1320 22 -58 c43 -115 139 -214 250 -258 l58 -24
1765 -3 c1290 -2 1781 0 1825 8 165 32 303 171 335 335 8 43 10 429 8 1400
l-3 1340 -22 53 c-32 80 -97 158 -166 203 -115 74 38 69 -1941 68 -1675 0
-1784 -1 -1836 -18z m3639 -217 c66 -33 107 -93 116 -168 3 -28 5 -482 3
-1010 l-3 -958 -473 551 c-259 303 -491 565 -514 581 -106 77 -261 76 -372 -3
-22 -16 -328 -379 -883 -1046 -2 -3 -81 72 -176 167 -202 201 -227 216 -352
216 -146 1 -138 6 -632 -487 l-433 -431 0 1227 c0 1189 1 1229 19 1265 11 20
32 49 48 64 64 61 -67 57 1849 58 l1750 0 53 -26z m-991 -1182 c13 -9 268
-303 567 -652 l544 -635 1 -143 c0 -79 -5 -164 -12 -190 -16 -64 -86 -134
-150 -150 -61 -16 -3464 -17 -3519 -2 -20 6 -51 20 -69 33 -71 48 -100 12 435
547 322 322 498 491 515 495 15 3 40 1 56 -5 16 -6 121 -103 234 -215 113
-112 218 -209 234 -215 67 -25 64 -28 567 575 309 371 479 567 497 574 33 12
69 6 100 -17z"/>
<path d="M1790 4032 c-73 -24 -125 -59 -183 -121 -155 -166 -149 -420 14 -584
246 -246 659 -111 719 234 24 136 -26 275 -134 377 -84 78 -148 104 -271 109
-68 2 -104 -1 -145 -15z m215 -211 c158 -71 167 -296 15 -380 -93 -52 -211
-23 -274 67 -40 57 -48 149 -18 208 55 107 174 152 277 105z"/>
<path d="M478 3035 c-16 -9 -33 -32 -42 -57 -38 -101 -428 -1578 -433 -1638
-14 -168 88 -343 240 -413 29 -13 308 -93 622 -177 314 -83 1065 -285 1670
-447 605 -162 1128 -298 1161 -300 158 -14 333 85 404 227 32 64 200 679 200
732 0 45 -38 94 -79 103 -36 8 -96 -16 -111 -45 -9 -17 -190 -670 -190 -686 0
-3 -19 -25 -41 -49 -31 -34 -55 -49 -96 -61 -62 -18 -54 -19 -318 52 -110 29
-857 229 -1660 444 -1578 422 -1515 402 -1562 484 -46 83 -51 56 182 924 118
441 215 814 215 828 0 16 -13 39 -34 60 -38 38 -81 44 -128 19z"/>
</g>
</svg>
