<?xml version="1.0" standalone="no"?>
<!DOCTYPE svg PUBLIC "-//W3C//DTD SVG 20010904//EN"
 "http://www.w3.org/TR/2001/REC-SVG-20010904/DTD/svg10.dtd">
<svg version="1.0" xmlns="http://www.w3.org/2000/svg"
 width="512.000000pt" height="512.000000pt" viewBox="0 0 512.000000 512.000000"
 preserveAspectRatio="xMidYMid meet">

<g transform="translate(0.000000,512.000000) scale(0.100000,-0.100000)"
fill="#000000" stroke="none">
<path d="M2285 5114 c-369 -24 -816 -85 -1030 -141 -296 -77 -508 -196 -710
-398 -246 -246 -367 -496 -439 -913 -141 -805 -138 -1508 10 -2267 137 -700
572 -1140 1268 -1280 156 -31 423 -69 651 -91 249 -25 797 -25 1050 -1 403 40
698 91 898 157 504 168 857 546 991 1061 43 168 101 550 126 844 58 670 -32
1595 -195 2000 -160 397 -489 706 -905 848 -200 68 -520 125 -912 163 -154 14
-673 26 -803 18z m805 -249 c205 -20 468 -58 623 -91 585 -123 946 -483 1062
-1058 32 -157 70 -426 92 -646 24 -244 24 -777 0 -1020 -79 -780 -176 -1072
-446 -1341 -53 -52 -110 -105 -127 -117 l-31 -21 -6 137 c-9 219 -50 390 -137
567 -212 430 -675 704 -1294 766 -152 15 -525 7 -660 -15 -561 -90 -970 -353
-1166 -751 -86 -176 -128 -347 -137 -562 -3 -73 -8 -133 -11 -133 -3 0 -36 26
-74 57 -155 127 -293 331 -371 548 -92 259 -177 911 -177 1365 0 389 68 988
145 1276 118 445 412 756 850 899 187 62 606 126 1000 155 175 12 673 4 865
-15z m-115 -3074 c604 -111 964 -437 1041 -942 22 -140 15 -396 -11 -415 -9
-7 -60 -26 -113 -43 -358 -114 -1133 -185 -1652 -152 -429 28 -809 87 -1025
159 l-110 37 -7 50 c-11 89 -8 267 7 367 79 527 476 861 1130 953 153 22 594
13 740 -14z"/>
<path d="M2416 4270 c-337 -54 -616 -253 -770 -550 -87 -169 -123 -335 -113
-529 22 -440 320 -810 752 -937 122 -35 328 -44 459 -20 278 53 517 210 672
442 107 160 162 327 171 520 24 492 -297 928 -772 1050 -113 28 -299 40 -399
24z m349 -245 c219 -59 422 -229 519 -435 58 -124 71 -186 71 -350 -1 -138 -2
-150 -34 -243 -84 -243 -276 -434 -519 -514 -81 -26 -98 -28 -247 -28 -153 0
-164 2 -247 31 -250 89 -423 264 -510 516 -30 88 -32 101 -33 238 0 164 12
226 71 350 109 231 335 404 586 450 73 13 271 4 343 -15z"/>
</g>
</svg>
